<?xml version="1.0" standalone="no"?>
<!DOCTYPE svg PUBLIC "-//W3C//DTD SVG 20010904//EN"
 "http://www.w3.org/TR/2001/REC-SVG-20010904/DTD/svg10.dtd">
<svg version="1.0" xmlns="http://www.w3.org/2000/svg"
 width="500.000000pt" height="500.000000pt" viewBox="0 0 500.000000 500.000000"
 preserveAspectRatio="xMidYMid meet">

<g transform="translate(0.000000,500.000000) scale(0.100000,-0.100000)"
fill="#000000" stroke="none">
<path d="M2762 3338 c-8 -11 -261 -543 -352 -743 -15 -33 -49 -105 -75 -160
-175 -369 -275 -589 -275 -606 0 -22 34 -59 54 -59 38 0 61 40 221 385 13 28
136 291 274 585 138 294 251 546 251 560 0 14 -5 31 -12 38 -16 16 -73 15 -86
0z"/>
<path d="M2387 3256 c-58 -16 -146 -75 -193 -130 -57 -66 -120 -175 -155 -266
-30 -77 -33 -95 -33 -200 -1 -104 1 -118 21 -146 l23 -32 -40 -26 c-47 -31
-92 -106 -116 -193 -25 -91 -22 -93 140 -93 l132 0 17 35 c9 20 17 38 17 40 0
3 -49 5 -110 5 -69 0 -110 4 -110 10 0 23 32 86 57 112 48 50 73 53 142 19 33
-17 64 -31 69 -31 9 0 166 329 160 336 -8 7 -173 -16 -220 -32 -26 -8 -62 -29
-78 -46 l-30 -30 0 65 c0 176 149 441 286 508 63 30 130 28 190 -5 57 -32 58
-32 72 -1 20 43 14 51 -47 79 -73 33 -132 40 -194 22z"/>
<path d="M1793 3252 c-25 -16 -393 -612 -393 -637 0 -16 70 -137 184 -318 101
-160 191 -302 201 -314 31 -44 105 -21 105 31 0 13 -79 149 -176 302 -97 153
-178 284 -181 291 -4 10 80 149 296 489 53 84 62 122 35 148 -16 17 -51 21
-71 8z"/>
<path d="M3045 3240 c-10 -11 -16 -29 -13 -42 2 -13 82 -147 178 -298 95 -151
175 -282 177 -291 3 -8 -75 -141 -171 -294 -97 -154 -176 -289 -176 -301 0
-47 71 -74 100 -39 29 35 381 600 386 619 3 15 -46 102 -181 316 -102 162
-195 307 -206 323 -24 33 -67 36 -94 7z"/>
<path d="M2771 2992 l-21 -41 31 -68 c37 -84 59 -171 59 -242 l0 -55 -27 27
c-34 31 -105 64 -152 69 l-33 3 -84 -179 c-46 -98 -84 -180 -84 -182 0 -21
185 23 282 67 l68 32 39 -26 c41 -27 75 -74 86 -119 l7 -28 -259 0 -259 0 -17
-35 c-9 -20 -17 -38 -17 -40 0 -3 142 -5 315 -5 372 0 349 -9 309 121 -23 74
-32 89 -83 139 l-57 56 23 43 c45 85 20 271 -57 419 -47 91 -45 90 -69 44z"/>
</g>
</svg>
